PathFileType	4	(X/Y/Z)	/Users/itak/Documents/Research/Walk-IL/dataset/trc/00004_00004.trc
DataRate	CameraRate	NumFrames	NumMarkers	Units	OrigDataRate	OrigDataStartFrame	OrigNumFrames
100.000000	100.000000	4	53	mm	100.000000	212	566
Frame#	Time	RPSI			LPSI			L3			STRN			T10			C7			CLAV			RBAK			LBAK			LSHO			LUPA			LAEL			LAOL			LWTS			LWPS			LFRA			LIFD			LHPS			LHTS			RSHO			RUPA			RAEL			RAOL			RWTS			RWPS			RFRA			RIFD			RHTS			RHPS			RBHD			LFHD			RFHD			LBHD			LHIP			RHIP			RASI			LASI			LKNE			LTHI			LANK			LTIP			LTOE			LMT1			LMT5			LHEE			RKNE			RTHI			RANK			RTIP			RTOE			RMT1			RMT5			RHEE			
		X1	Y1	Z1	X2	Y2	Z2	X3	Y3	Z3	X4	Y4	Z4	X5	Y5	Z5	X6	Y6	Z6	X7	Y7	Z7	X8	Y8	Z8	X9	Y9	Z9	X10	Y10	Z10	X11	Y11	Z11	X12	Y12	Z12	X13	Y13	Z13	X14	Y14	Z14	X15	Y15	Z15	X16	Y16	Z16	X17	Y17	Z17	X18	Y18	Z18	X19	Y19	Z19	X20	Y20	Z20	X21	Y21	Z21	X22	Y22	Z22	X23	Y23	Z23	X24	Y24	Z24	X25	Y25	Z25	X26	Y26	Z26	X27	Y27	Z27	X28	Y28	Z28	X29	Y29	Z29	X30	Y30	Z30	X31	Y31	Z31	X32	Y32	Z32	X33	Y33	Z33	X34	Y34	Z34	X35	Y35	Z35	X36	Y36	Z36	X37	Y37	Z37	X38	Y38	Z38	X39	Y39	Z39	X40	Y40	Z40	X41	Y41	Z41	X42	Y42	Z42	X43	Y43	Z43	X44	Y44	Z44	X45	Y45	Z45	X46	Y46	Z46	X47	Y47	Z47	X48	Y48	Z48	X49	Y49	Z49	X50	Y50	Z50	X51	Y51	Z51	X52	Y52	Z52	X53	Y53	Z53	

213	2.12	-940.83642578125	1042.081176757812	-148.9457855224609	-937.59716796875	1038.365844726562	-312.7611694335938	-941.5798950195312	1107.994018554688	-235.0644073486328	-710.1495361328125	1289.8857421875	-228.1657562255859	-961.932373046875	1249.609130859375	-235.2336120605469	-904.890625	1514.355346679688	-250.5296173095703	-748.2167358398438	1417.562744140625	-238.5446472167969	-961.851318359375	1382.335693359375	-168.2075958251953	-920.8866577148438	1470.734008789062	-347.632568359375	-816.3165283203125	1472.6591796875	-419.8874206542969	-853.2139892578125	1346.923095703125	-493.6146240234375	-874.1631469726562	1130.829956054688	-514.5586547851562	-927.3260498046875	1123.226440429688	-422.716064453125	-796.6026000976562	875.9551391601562	-459.4482421875	-876.7457885742188	863.5428466796875	-495.4070434570312	-868.5044555664062	1014.245666503906	-518.8621826171875	-764.7741088867188	696.900146484375	-442.286376953125	-845.9896240234375	772.8822021484375	-494.48486328125	-778.8533935546875	782.478271484375	-473.2201538085938	-831.6419067382812	1504.135009765625	-73.51628875732422	-848.0823974609375	1434.486328125	1.138610482215881	-888.9653930664062	1166.6611328125	32.45748138427734	-894.73095703125	1136.707153320312	-63.30437469482422	-765.8523559570312	903.9678955078125	3.029222011566162	-829.3358764648438	892.356689453125	70.27019500732422	-876.6837768554688	1090.90576171875	49.15187454223633	-752.94921875	717.3414916992188	-7.35169506072998	-736.0702514648438	793.2864379882812	20.09931564331055	-790.6973266601562	791.2932739257812	70.21959686279297	-852.5186767578125	1694.069580078125	-313.7756652832031	-666.312255859375	1706.674926757812	-199.7608642578125	-670.628173828125	1703.352416992188	-298.0744323730469	-838.86572265625	1694.185791015625	-169.6500701904297	-828.493408203125	944.1216430664062	-419.1723022460938	-840.0641479492188	930.3947143554688	-42.01096343994141	-728.5905151367188	957.9541015625	-107.1399154663086	-722.5939331054688	986.9785766601562	-342.4992065429688	-632.403564453125	539.8014526367188	-358.8127746582031	-706.0573120117188	654.9995727539062	-403.5734558105469	-635.3009033203125	42.60487365722656	-376.2715454101562	-655.9365234375	289.1653442382812	-386.4011840820312	-430.5001831054688	60.60744476318359	-278.8226928710938	-490.8931274414062	60.13629913330078	-270.1914367675781	-510.4609985351562	54.41965866088867	-374.951904296875	-711.5955810546875	41.89506530761719	-332.7702331542969	-920.5504150390625	503.0773620605469	-88.28949737548828	-847.6969604492188	765.3695068359375	-48.85224914550781	-1215.227905273438	89.63004302978516	-129.8839721679688	-991.39404296875	391.0610961914062	-92.40499114990234	-996.1327514648438	44.76794815063477	-176.4210510253906	-1054.118896484375	59.76907730102539	-203.6722869873047	-1073.896484375	43.41079330444336	-108.8772048950195	-1267.645141601562	113.9648818969727	-173.6462249755859	
214	2.13	-932.2884521484375	1042.178100585938	-150.6540222167969	-929.4375	1038.62744140625	-314.4786071777344	-933.7316284179688	1108.23486328125	-236.6930847167969	-702.5715942382812	1290.52197265625	-230.2730102539062	-954.4151611328125	1249.669799804688	-237.1858215332031	-897.9019775390625	1514.50830078125	-252.93798828125	-740.9806518554688	1418.055297851562	-240.7528381347656	-954.6316528320312	1382.454345703125	-170.5236968994141	-913.7262573242188	1470.79296875	-350.0156860351562	-809.1035766601562	1472.925170898438	-422.166015625	-845.65185546875	1347.025146484375	-495.8170166015625	-866.3789672851562	1130.904418945312	-516.4268798828125	-919.5137939453125	1123.415161132812	-424.5538940429688	-789.6000366210938	875.738525390625	-461.1614990234375	-869.7778930664062	863.6563720703125	-497.1812744140625	-861.0194702148438	1014.309997558594	-520.6571655273438	-758.1180419921875	697.0257568359375	-444.201904296875	-839.406494140625	772.869140625	-496.2016906738281	-772.2927856445312	782.1597290039062	-474.810791015625	-824.7277221679688	1504.58837890625	-75.86086273193359	-841.1644287109375	1434.993041992188	-1.181856155395508	-882.215576171875	1167.263427734375	29.97930145263672	-887.58984375	1137.241455078125	-65.78432464599609	-759.2401733398438	904.440673828125	1.333289265632629	-823.0713500976562	892.9492797851562	68.27326965332031	-870.0681762695312	1091.533325195312	46.79726409912109	-746.6458740234375	717.7496337890625	-8.824616432189941	-729.7817993164062	793.713134765625	18.59521484375	-784.5599975585938	791.8118286132812	68.50311279296875	-845.8157958984375	1694.362426757812	-316.0838623046875	-659.8057250976562	1707.321655273438	-201.8177947998047	-663.9835815429688	1704.006225585938	-300.1215515136719	-832.3971557617188	1694.505737304688	-171.9457702636719	-820.1573486328125	944.6085815429688	-420.9298706054688	-831.3704223632812	930.5135498046875	-43.93097686767578	-720.0219116210938	958.3582763671875	-109.2014541625977	-714.1248168945312	987.6690063476562	-344.5166015625	-624.5902709960938	539.7140502929688	-359.5321350097656	-697.6767578125	655.3125610351562	-404.4451599121094	-634.336669921875	42.01533889770508	-376.4950256347656	-650.7154541015625	288.835693359375	-386.9833984375	-429.4262390136719	56.34981918334961	-278.2223205566406	-489.8447875976562	57.10313034057617	-269.9298706054688	-509.2874450683594	51.53338241577148	-374.8298645019531	-710.8193969726562	42.90366363525391	-333.0929565429688	-911.529296875	502.941162109375	-88.87590026855469	-838.8885498046875	765.5328369140625	-50.50811386108398	-1213.054443359375	93.45101928710938	-128.8748474121094	-983.95263671875	391.5721130371094	-92.36965942382812	-996.2413940429688	44.75617980957031	-176.4338989257812	-1053.318359375	60.50634765625	-203.3895263671875	-1073.036743164062	43.50386428833008	-108.6669464111328	-1264.861450195312	119.3131408691406	-172.4499664306641	
215	2.14	-923.6158447265625	1042.3671875	-152.3618316650391	-921.2036743164062	1038.94677734375	-316.1834106445312	-925.7950439453125	1108.534545898438	-238.3293762207031	-694.87890625	1291.287353515625	-232.4401702880859	-946.8107299804688	1249.817626953125	-239.0895538330078	-890.8536987304688	1514.755615234375	-255.3390502929688	-733.6635131835938	1418.669311523438	-243.006591796875	-947.298095703125	1382.6669921875	-172.7926177978516	-906.5310668945312	1470.954833984375	-352.3835754394531	-801.8716430664062	1473.323974609375	-424.4542846679688	-838.07470703125	1347.275390625	-498.032470703125	-858.5484008789062	1131.127685546875	-518.3197021484375	-911.6390380859375	1123.741088867188	-426.4086303710938	-782.4924926757812	875.6798095703125	-462.9253234863281	-862.7246704101562	863.9249877929688	-499.0050048828125	-853.4623413085938	1014.528015136719	-522.4879760742188	-751.281494140625	697.39501953125	-446.229736328125	-832.7227172851562	773.01123046875	-497.9737854003906	-765.6287231445312	781.9837036132812	-476.4596252441406	-817.67138671875	1505.170776367188	-78.24082183837891	-834.074462890625	1435.638671875	-3.521111488342285	-875.3614501953125	1168.03076171875	27.46558952331543	-880.3463134765625	1137.947875976562	-68.30126953125	-752.58642578125	905.0585327148438	-0.4173102378845215	-816.740478515625	893.6889038085938	66.22374725341797	-863.3701171875	1092.325561523438	44.40126800537109	-740.3129272460938	718.3165283203125	-10.40131378173828	-723.4736328125	794.2789916992188	16.99823951721191	-778.401611328125	792.4593505859375	66.70270538330078	-839.0581665039062	1694.754760742188	-318.4078369140625	-653.2469482421875	1708.068481445312	-203.891357421875	-657.2896728515625	1704.764526367188	-302.1861572265625	-825.8780517578125	1694.918090820312	-174.259033203125	-811.7543334960938	945.1752319335938	-422.6881713867188	-822.5308837890625	930.7138671875	-45.90238952636719	-711.3181762695312	958.8910522460938	-111.3414077758789	-705.5670776367188	988.4923706054688	-346.6087951660156	-616.8486328125	539.6176147460938	-360.3677978515625	-689.2514038085938	655.7256469726562	-405.3553161621094	-633.4716186523438	41.45642852783203	-376.795166015625	-645.6135864257812	288.5312805175781	-387.6916198730469	-428.4032592773438	52.51739120483398	-277.851318359375	-488.8375549316406	54.48012542724609	-269.8714294433594	-508.264892578125	48.90425491333008	-374.9082336425781	-710.0567626953125	43.82602310180664	-333.4547729492188	-901.8899536132812	502.7517700195312	-89.41709899902344	-829.7894287109375	765.74267578125	-52.22988891601562	-1210.545654296875	97.560546875	-127.7982711791992	-975.950439453125	392.0891418457031	-92.27457427978516	-996.4196166992188	44.70117950439453	-176.4954681396484	-1052.397827148438	61.25945281982422	-203.05419921875	-1072.111694335938	43.61294555664062	-108.435661315918	-1261.622436523438	125.0528411865234	-171.1568908691406	
216	2.15	-914.862060546875	1042.630249023438	-154.0977478027344	-912.8819580078125	1039.306762695312	-317.9088134765625	-917.7545166015625	1108.857055664062	-240.0162353515625	-687.0944213867188	1292.159423828125	-234.6610260009766	-939.1007690429688	1250.036499023438	-240.9841766357422	-883.7545776367188	1515.085571289062	-257.728271484375	-726.2777099609375	1419.39013671875	-245.3000946044922	-939.8623046875	1382.955200195312	-175.018310546875	-899.3087768554688	1471.203857421875	-354.7337951660156	-794.6253662109375	1473.837158203125	-426.7490844726562	-830.4984741210938	1347.656860351562	-500.2607421875	-850.6992797851562	1131.480102539062	-520.2433471679688	-903.7428588867188	1124.183349609375	-428.2930603027344	-775.2798461914062	875.7717895507812	-464.7408447265625	-855.5850830078125	864.3289794921875	-500.8757629394531	-845.8450317382812	1014.879577636719	-524.3575439453125	-744.2304077148438	698.0103149414062	-448.3705749511719	-825.9198608398438	773.29248046875	-499.79833984375	-758.8491821289062	781.94580078125	-478.1655883789062	-810.48583984375	1505.859252929688	-80.64894104003906	-826.828125	1436.399536132812	-5.873585224151611	-868.4097900390625	1168.936157226562	24.94442176818848	-873.0232543945312	1138.799560546875	-70.82711029052734	-745.8820190429688	905.7999267578125	-2.223891258239746	-810.3264770507812	894.5532836914062	64.13670349121094	-856.5836181640625	1093.254150390625	41.99094772338867	-733.921875	719.0218505859375	-12.09259033203125	-717.1160888671875	794.9647827148438	15.30878448486328	-772.1896362304688	793.2181396484375	64.82284545898438	-832.2565307617188	1695.239013671875	-320.7396545410156	-646.6459350585938	1708.90234375	-205.9698944091797	-650.5531005859375	1705.61474609375	-304.2589111328125	-819.315185546875	1695.408935546875	-176.580322265625	-803.2669677734375	945.7740478515625	-424.4529113769531	-813.5934448242188	930.9921264648438	-47.92393493652344	-702.5156860351562	959.5476684570312	-113.5329208374023	-696.9265747070312	989.4003295898438	-348.7539367675781	-609.2763061523438	539.4462280273438	-361.3194274902344	-680.8994140625	656.15966796875	-406.3321228027344	-632.7150268554688	40.92918395996094	-377.1509704589844	-640.7091064453125	288.2230834960938	-388.4837951660156	-427.4178161621094	49.12833786010742	-277.6934509277344	-487.8596496582031	52.2762451171875	-270.0093078613281	-507.3888854980469	46.55198669433594	-375.1670532226562	-709.3208618164062	44.63497543334961	-333.8297119140625	-891.5865478515625	502.4953918457031	-89.86361694335938	-820.426025390625	765.9891357421875	-53.98891830444336	-1207.643920898438	101.9767150878906	-126.6529998779297	-967.3307495117188	392.5896606445312	-92.10516357421875	-996.660888671875	44.60174179077148	-176.6309967041016	-1051.343383789062	62.02600479125977	-202.6452484130859	-1071.10595703125	43.73570251464844	-108.1742935180664	-1257.851440429688	131.1961975097656	-169.7624816894531	
